TITLE ""
FILE "1Q_t_1529-1538.mp3" MP3
  TRACK 01 AUDIO
    TITLE "1Q_t_1529-1538_01"
    INDEX 01 00:00:00
  TRACK 02 AUDIO
    TITLE "1Q_t_1529-1538_02"
    INDEX 01 00:01:14
  TRACK 03 AUDIO
    TITLE "1Q_t_1529-1538_03"
    INDEX 01 00:01:23
  TRACK 04 AUDIO
    TITLE "1Q_t_1529-1538_04"
    INDEX 01 00:05:21
  TRACK 05 AUDIO
    TITLE "1Q_t_1529-1538_05"
    INDEX 01 00:05:27
  TRACK 06 AUDIO
    TITLE "1Q_t_1529-1538_06"
    INDEX 01 00:09:50
  TRACK 07 AUDIO
    TITLE "1Q_t_1529-1538_07"
    INDEX 01 00:10:20
  TRACK 08 AUDIO
    TITLE "1Q_t_1529-1538_08"
    INDEX 01 00:11:39
  TRACK 09 AUDIO
    TITLE "1Q_t_1529-1538_09"
    INDEX 01 00:11:47
  TRACK 10 AUDIO
    TITLE "1Q_t_1529-1538_10"
    INDEX 01 00:13:52
  TRACK 11 AUDIO
    TITLE "1Q_t_1529-1538_11"
    INDEX 01 00:13:58
  TRACK 12 AUDIO
    TITLE "1Q_t_1529-1538_12"
    INDEX 01 00:17:60
  TRACK 13 AUDIO
    TITLE "1Q_t_1529-1538_13"
    INDEX 01 00:18:30
  TRACK 14 AUDIO
    TITLE "1Q_t_1529-1538_14"
    INDEX 01 00:19:59
  TRACK 15 AUDIO
    TITLE "1Q_t_1529-1538_15"
    INDEX 01 00:19:66
  TRACK 16 AUDIO
    TITLE "1Q_t_1529-1538_16"
    INDEX 01 00:23:66
  TRACK 17 AUDIO
    TITLE "1Q_t_1529-1538_17"
    INDEX 01 00:23:72
  TRACK 18 AUDIO
    TITLE "1Q_t_1529-1538_18"
    INDEX 01 00:29:34
  TRACK 19 AUDIO
    TITLE "1Q_t_1529-1538_19"
    INDEX 01 00:30:06
  TRACK 20 AUDIO
    TITLE "1Q_t_1529-1538_20"
    INDEX 01 00:31:21
  TRACK 21 AUDIO
    TITLE "1Q_t_1529-1538_21"
    INDEX 01 00:31:28
  TRACK 22 AUDIO
    TITLE "1Q_t_1529-1538_22"
    INDEX 01 00:32:42
  TRACK 23 AUDIO
    TITLE "1Q_t_1529-1538_23"
    INDEX 01 00:32:48
  TRACK 24 AUDIO
    TITLE "1Q_t_1529-1538_24"
    INDEX 01 00:36:71
  TRACK 25 AUDIO
    TITLE "1Q_t_1529-1538_25"
    INDEX 01 00:37:41
  TRACK 26 AUDIO
    TITLE "1Q_t_1529-1538_26"
    INDEX 01 00:38:60
  TRACK 27 AUDIO
    TITLE "1Q_t_1529-1538_27"
    INDEX 01 00:38:70
  TRACK 28 AUDIO
    TITLE "1Q_t_1529-1538_28"
    INDEX 01 00:41:54
  TRACK 29 AUDIO
    TITLE "1Q_t_1529-1538_29"
    INDEX 01 00:41:60
  TRACK 30 AUDIO
    TITLE "1Q_t_1529-1538_30"
    INDEX 01 00:46:08
  TRACK 31 AUDIO
    TITLE "1Q_t_1529-1538_31"
    INDEX 01 00:46:54
  TRACK 32 AUDIO
    TITLE "1Q_t_1529-1538_32"
    INDEX 01 00:47:73
  TRACK 33 AUDIO
    TITLE "1Q_t_1529-1538_33"
    INDEX 01 00:48:07
  TRACK 34 AUDIO
    TITLE "1Q_t_1529-1538_34"
    INDEX 01 00:51:06
  TRACK 35 AUDIO
    TITLE "1Q_t_1529-1538_35"
    INDEX 01 00:51:12
  TRACK 36 AUDIO
    TITLE "1Q_t_1529-1538_36"
    INDEX 01 00:54:67
  TRACK 37 AUDIO
    TITLE "1Q_t_1529-1538_37"
    INDEX 01 00:55:37
  TRACK 38 AUDIO
    TITLE "1Q_t_1529-1538_38"
    INDEX 01 00:56:50
  TRACK 39 AUDIO
    TITLE "1Q_t_1529-1538_39"
    INDEX 01 00:56:58
  TRACK 40 AUDIO
    TITLE "1Q_t_1529-1538_40"
    INDEX 01 01:00:36
  TRACK 41 AUDIO
    TITLE "1Q_t_1529-1538_41"
    INDEX 01 01:00:42
  TRACK 42 AUDIO
    TITLE "1Q_t_1529-1538_42"
    INDEX 01 01:05:49
  TRACK 43 AUDIO
    TITLE "1Q_t_1529-1538_43"
    INDEX 01 01:06:19
  TRACK 44 AUDIO
    TITLE "1Q_t_1529-1538_44"
    INDEX 01 01:07:38
  TRACK 45 AUDIO
    TITLE "1Q_t_1529-1538_45"
    INDEX 01 01:07:46
  TRACK 46 AUDIO
    TITLE "1Q_t_1529-1538_46"
    INDEX 01 01:09:31
  TRACK 47 AUDIO
    TITLE "1Q_t_1529-1538_47"
    INDEX 01 01:09:37
  TRACK 48 AUDIO
    TITLE "1Q_t_1529-1538_48"
    INDEX 01 01:14:48
  TRACK 49 AUDIO
    TITLE "1Q_t_1529-1538_49"
    INDEX 01 01:15:22
  TRACK 50 AUDIO
    TITLE "1Q_t_1529-1538_50"
    INDEX 01 01:16:47
  TRACK 51 AUDIO
    TITLE "1Q_t_1529-1538_51"
    INDEX 01 01:16:57
  TRACK 52 AUDIO
    TITLE "1Q_t_1529-1538_52"
    INDEX 01 01:18:69
  TRACK 53 AUDIO
    TITLE "1Q_t_1529-1538_53"
    INDEX 01 01:19:00
  TRACK 54 AUDIO
    TITLE "1Q_t_1529-1538_54"
    INDEX 01 01:23:08
  TRACK 55 AUDIO
    TITLE "1Q_t_1529-1538_55"
    INDEX 01 01:23:51
  TRACK 56 AUDIO
    TITLE "1Q_t_1529-1538_56"
    INDEX 01 01:24:58
  TRACK 57 AUDIO
    TITLE "1Q_t_1529-1538_57"
    INDEX 01 01:24:68
  TRACK 58 AUDIO
    TITLE "1Q_t_1529-1538_58"
    INDEX 01 01:26:57
  TRACK 59 AUDIO
    TITLE "1Q_t_1529-1538_59"
    INDEX 01 01:26:65
  TRACK 60 AUDIO
    TITLE "1Q_t_1529-1538_60"
    INDEX 01 01:31:17
